<mxfile host="app.diagrams.net" agent="Mozilla/5.0 (X11; Linux x86_64) AppleWebKit/537.36 (KHTML, like Gecko) Chrome/127.0.0.0 Safari/537.36" version="24.7.7">
  <diagram name="Page-1" id="nupiJsgzfhe_DWhQacSc">
    <mxGraphModel dx="2718" dy="2278" grid="1" gridSize="10" guides="1" tooltips="1" connect="1" arrows="1" fold="1" page="1" pageScale="1" pageWidth="850" pageHeight="1100" math="0" shadow="0">
      <root>
        <mxCell id="0" />
        <mxCell id="1" parent="0" />
        <mxCell id="yHhBt-GLsd7lr8tDsYQ4-114" value="AWS Cloud" style="sketch=0;outlineConnect=0;gradientColor=none;html=1;whiteSpace=wrap;fontSize=12;fontStyle=0;shape=mxgraph.aws4.group;grIcon=mxgraph.aws4.group_aws_cloud;strokeColor=#AAB7B8;fillColor=none;verticalAlign=top;align=left;spacingLeft=30;fontColor=#AAB7B8;dashed=0;" parent="1" vertex="1">
          <mxGeometry x="-550" y="-480" width="1960" height="1350" as="geometry" />
        </mxCell>
        <mxCell id="yHhBt-GLsd7lr8tDsYQ4-18" value="" style="rounded=1;whiteSpace=wrap;html=1;fillColor=none;strokeColor=#FF8000;dashed=1;strokeWidth=2;" parent="1" vertex="1">
          <mxGeometry x="-20" y="326" width="1010" height="210" as="geometry" />
        </mxCell>
        <mxCell id="yHhBt-GLsd7lr8tDsYQ4-30" value="" style="fillColor=none;strokeColor=#000000;dashed=1;verticalAlign=top;fontStyle=0;fontColor=#147EBA;whiteSpace=wrap;html=1;strokeWidth=2;" parent="1" vertex="1">
          <mxGeometry x="30" y="346" width="930" height="80" as="geometry" />
        </mxCell>
        <mxCell id="yHhBt-GLsd7lr8tDsYQ4-113" value="VPC" style="sketch=0;outlineConnect=0;gradientColor=none;html=1;whiteSpace=wrap;fontSize=12;fontStyle=0;shape=mxgraph.aws4.group;grIcon=mxgraph.aws4.group_vpc;strokeColor=#879196;fillColor=none;verticalAlign=top;align=left;spacingLeft=30;fontColor=#879196;dashed=0;" parent="1" vertex="1">
          <mxGeometry x="-110" y="-260" width="1200" height="1080" as="geometry" />
        </mxCell>
        <mxCell id="yHhBt-GLsd7lr8tDsYQ4-17" value="" style="rounded=1;whiteSpace=wrap;html=1;fillColor=none;strokeColor=#FF8000;dashed=1;strokeWidth=3;" parent="1" vertex="1">
          <mxGeometry x="-70" y="-50" width="1110" height="600" as="geometry" />
        </mxCell>
        <mxCell id="yHhBt-GLsd7lr8tDsYQ4-23" value="Availability Zone - (Region)a" style="fillColor=none;strokeColor=#000000;dashed=1;verticalAlign=top;fontStyle=0;fontColor=#147EBA;whiteSpace=wrap;html=1;" parent="1" vertex="1">
          <mxGeometry x="550" y="346" width="410" height="80" as="geometry" />
        </mxCell>
        <mxCell id="yHhBt-GLsd7lr8tDsYQ4-41" value="" style="fillColor=none;strokeColor=#000000;dashed=1;verticalAlign=top;fontStyle=0;fontColor=#147EBA;whiteSpace=wrap;html=1;strokeWidth=2;" parent="1" vertex="1">
          <mxGeometry x="30" y="446" width="930" height="80" as="geometry" />
        </mxCell>
        <mxCell id="yHhBt-GLsd7lr8tDsYQ4-43" value="" style="group" parent="1" vertex="1" connectable="0">
          <mxGeometry x="-70" y="600" width="1110" height="180" as="geometry" />
        </mxCell>
        <mxCell id="yHhBt-GLsd7lr8tDsYQ4-13" value="" style="rounded=1;whiteSpace=wrap;html=1;fillColor=none;strokeColor=#FF8000;dashed=1;strokeWidth=3;" parent="yHhBt-GLsd7lr8tDsYQ4-43" vertex="1">
          <mxGeometry width="1110" height="180" as="geometry" />
        </mxCell>
        <mxCell id="yHhBt-GLsd7lr8tDsYQ4-3" value="AZ-(region)a" style="fillColor=none;strokeColor=#000203;dashed=1;verticalAlign=top;fontStyle=0;fontColor=#147EBA;whiteSpace=wrap;html=1;strokeWidth=2;" parent="yHhBt-GLsd7lr8tDsYQ4-43" vertex="1">
          <mxGeometry x="620" y="21.5" width="400" height="130" as="geometry" />
        </mxCell>
        <mxCell id="yHhBt-GLsd7lr8tDsYQ4-5" value="AZ-(region)b" style="fillColor=none;strokeColor=#CCCCCC;dashed=1;verticalAlign=top;fontStyle=0;fontColor=#CCCCCC;whiteSpace=wrap;html=1;strokeWidth=2;" parent="yHhBt-GLsd7lr8tDsYQ4-43" vertex="1">
          <mxGeometry x="100" y="21.5" width="400" height="130" as="geometry" />
        </mxCell>
        <mxCell id="yHhBt-GLsd7lr8tDsYQ4-4" value="RDS instance - Standby" style="verticalLabelPosition=bottom;html=1;verticalAlign=top;strokeWidth=1;align=center;outlineConnect=0;dashed=0;outlineConnect=0;shape=mxgraph.aws3d.rdsSlave;fillColor=default;strokeColor=#666666;aspect=fixed;fontColor=#333333;spacing=-2;" parent="yHhBt-GLsd7lr8tDsYQ4-43" vertex="1">
          <mxGeometry x="278.26" y="66.5" width="43.47" height="47" as="geometry" />
        </mxCell>
        <mxCell id="yHhBt-GLsd7lr8tDsYQ4-9" value="" style="endArrow=classic;html=1;rounded=0;exitX=0;exitY=0.5;exitDx=0;exitDy=0;entryX=1;entryY=0.5;entryDx=0;entryDy=0;dashed=1;strokeWidth=2;" parent="yHhBt-GLsd7lr8tDsYQ4-43" source="yHhBt-GLsd7lr8tDsYQ4-3" target="yHhBt-GLsd7lr8tDsYQ4-5" edge="1">
          <mxGeometry width="50" height="50" relative="1" as="geometry">
            <mxPoint x="530" y="-80" as="sourcePoint" />
            <mxPoint x="580" y="-130" as="targetPoint" />
          </mxGeometry>
        </mxCell>
        <mxCell id="yHhBt-GLsd7lr8tDsYQ4-87" value="&lt;b&gt;&lt;i&gt;Database&lt;/i&gt;&lt;/b&gt;" style="text;html=1;align=center;verticalAlign=middle;resizable=0;points=[];autosize=1;strokeColor=none;fillColor=none;spacing=0;" parent="yHhBt-GLsd7lr8tDsYQ4-43" vertex="1">
          <mxGeometry x="55" width="70" height="20" as="geometry" />
        </mxCell>
        <mxCell id="yHhBt-GLsd7lr8tDsYQ4-1" value="RDS insfance" style="verticalLabelPosition=bottom;html=1;verticalAlign=top;strokeWidth=1;align=center;outlineConnect=0;dashed=0;outlineConnect=0;shape=mxgraph.aws3d.rdsSlave;fillColor=#dae8fc;strokeColor=#6c8ebf;aspect=fixed;spacing=-2;" parent="yHhBt-GLsd7lr8tDsYQ4-43" vertex="1">
          <mxGeometry x="800" y="64.58000000000004" width="47.02" height="50.84" as="geometry" />
        </mxCell>
        <mxCell id="yHhBt-GLsd7lr8tDsYQ4-128" value="" style="endArrow=classic;html=1;rounded=0;entryX=1;entryY=0.5;entryDx=0;entryDy=0;entryPerimeter=0;" parent="1" source="yHhBt-GLsd7lr8tDsYQ4-116" target="yHhBt-GLsd7lr8tDsYQ4-117" edge="1">
          <mxGeometry width="50" height="50" relative="1" as="geometry">
            <mxPoint x="1510" y="-320" as="sourcePoint" />
            <mxPoint x="1560" y="-370" as="targetPoint" />
          </mxGeometry>
        </mxCell>
        <mxCell id="yHhBt-GLsd7lr8tDsYQ4-49" value="&lt;b&gt;&lt;i&gt;ECS Cluster&lt;/i&gt;&lt;/b&gt;" style="text;html=1;align=center;verticalAlign=middle;resizable=0;points=[];autosize=1;strokeColor=none;fillColor=none;spacing=0;" parent="1" vertex="1">
          <mxGeometry x="-10" y="-50" width="90" height="20" as="geometry" />
        </mxCell>
        <mxCell id="yHhBt-GLsd7lr8tDsYQ4-57" value="" style="group;strokeWidth=2;" parent="1" vertex="1" connectable="0">
          <mxGeometry x="600" y="10" width="390" height="270" as="geometry" />
        </mxCell>
        <mxCell id="yHhBt-GLsd7lr8tDsYQ4-14" value="" style="rounded=1;whiteSpace=wrap;html=1;fillColor=none;strokeColor=#FF8000;dashed=1;strokeWidth=2;" parent="yHhBt-GLsd7lr8tDsYQ4-57" vertex="1">
          <mxGeometry y="20" width="390" height="250" as="geometry" />
        </mxCell>
        <mxCell id="yHhBt-GLsd7lr8tDsYQ4-52" value="&lt;b&gt;&lt;i&gt;ECS Service - Backend&lt;/i&gt;&lt;/b&gt;" style="text;html=1;align=center;verticalAlign=middle;resizable=0;points=[];autosize=1;strokeColor=none;fillColor=none;spacing=0;" parent="yHhBt-GLsd7lr8tDsYQ4-57" vertex="1">
          <mxGeometry x="16.595744680851062" width="150" height="20" as="geometry" />
        </mxCell>
        <mxCell id="yHhBt-GLsd7lr8tDsYQ4-62" value="" style="sketch=0;outlineConnect=0;fontColor=#232F3E;gradientColor=none;fillColor=#ED7100;strokeColor=none;dashed=0;verticalLabelPosition=bottom;verticalAlign=top;align=center;html=1;fontSize=12;fontStyle=0;aspect=fixed;pointerEvents=1;shape=mxgraph.aws4.ecs_service_connect;rotation=-180;" parent="yHhBt-GLsd7lr8tDsYQ4-57" vertex="1">
          <mxGeometry x="52.99999999999999" y="181.7" width="74" height="67.83" as="geometry" />
        </mxCell>
        <mxCell id="yHhBt-GLsd7lr8tDsYQ4-63" value="" style="sketch=0;outlineConnect=0;fontColor=#232F3E;gradientColor=none;fillColor=#ED7100;strokeColor=none;dashed=0;verticalLabelPosition=bottom;verticalAlign=top;align=center;html=1;fontSize=12;fontStyle=0;aspect=fixed;pointerEvents=1;shape=mxgraph.aws4.ecs_service;" parent="yHhBt-GLsd7lr8tDsYQ4-57" vertex="1">
          <mxGeometry x="166.6" y="60" width="99.69" height="122.7" as="geometry" />
        </mxCell>
        <mxCell id="yHhBt-GLsd7lr8tDsYQ4-66" value="" style="edgeStyle=orthogonalEdgeStyle;rounded=0;orthogonalLoop=1;jettySize=auto;html=1;" parent="yHhBt-GLsd7lr8tDsYQ4-57" source="yHhBt-GLsd7lr8tDsYQ4-63" target="yHhBt-GLsd7lr8tDsYQ4-62" edge="1">
          <mxGeometry relative="1" as="geometry">
            <Array as="points">
              <mxPoint x="216" y="220" />
            </Array>
          </mxGeometry>
        </mxCell>
        <mxCell id="yHhBt-GLsd7lr8tDsYQ4-67" value="Service Connect" style="edgeLabel;html=1;align=center;verticalAlign=middle;resizable=0;points=[];" parent="yHhBt-GLsd7lr8tDsYQ4-66" vertex="1" connectable="0">
          <mxGeometry x="0.134" y="3" relative="1" as="geometry">
            <mxPoint as="offset" />
          </mxGeometry>
        </mxCell>
        <mxCell id="yHhBt-GLsd7lr8tDsYQ4-58" value="" style="group;strokeWidth=2;" parent="1" vertex="1" connectable="0">
          <mxGeometry x="-20" y="10" width="490" height="270" as="geometry" />
        </mxCell>
        <mxCell id="yHhBt-GLsd7lr8tDsYQ4-16" value="" style="rounded=1;whiteSpace=wrap;html=1;fillColor=none;strokeColor=#FF8000;dashed=1;strokeWidth=2;" parent="yHhBt-GLsd7lr8tDsYQ4-58" vertex="1">
          <mxGeometry y="20" width="380" height="250" as="geometry" />
        </mxCell>
        <mxCell id="yHhBt-GLsd7lr8tDsYQ4-50" value="&lt;b&gt;&lt;i&gt;ECS Service - Frontend&lt;/i&gt;&lt;/b&gt;" style="text;html=1;align=center;verticalAlign=middle;resizable=0;points=[];autosize=1;strokeColor=none;fillColor=none;spacing=0;" parent="yHhBt-GLsd7lr8tDsYQ4-58" vertex="1">
          <mxGeometry x="10" width="150" height="20" as="geometry" />
        </mxCell>
        <mxCell id="yHhBt-GLsd7lr8tDsYQ4-53" value="" style="sketch=0;outlineConnect=0;fontColor=#232F3E;gradientColor=none;fillColor=#ED7100;strokeColor=none;dashed=0;verticalLabelPosition=bottom;verticalAlign=top;align=center;html=1;fontSize=12;fontStyle=0;aspect=fixed;pointerEvents=1;shape=mxgraph.aws4.ecs_service;" parent="yHhBt-GLsd7lr8tDsYQ4-58" vertex="1">
          <mxGeometry x="110" y="60" width="99.69" height="122.7" as="geometry" />
        </mxCell>
        <mxCell id="yHhBt-GLsd7lr8tDsYQ4-54" value="" style="sketch=0;outlineConnect=0;fontColor=#232F3E;gradientColor=none;fillColor=#ED7100;strokeColor=none;dashed=0;verticalLabelPosition=bottom;verticalAlign=top;align=center;html=1;fontSize=12;fontStyle=0;aspect=fixed;pointerEvents=1;shape=mxgraph.aws4.ecs_service_connect;" parent="yHhBt-GLsd7lr8tDsYQ4-58" vertex="1">
          <mxGeometry x="253" y="183" width="74" height="67.83" as="geometry" />
        </mxCell>
        <mxCell id="yHhBt-GLsd7lr8tDsYQ4-65" value="" style="edgeStyle=orthogonalEdgeStyle;rounded=0;orthogonalLoop=1;jettySize=auto;html=1;" parent="yHhBt-GLsd7lr8tDsYQ4-58" source="yHhBt-GLsd7lr8tDsYQ4-53" target="yHhBt-GLsd7lr8tDsYQ4-54" edge="1">
          <mxGeometry relative="1" as="geometry">
            <Array as="points">
              <mxPoint x="170" y="217" />
            </Array>
          </mxGeometry>
        </mxCell>
        <mxCell id="yHhBt-GLsd7lr8tDsYQ4-68" value="Service Connect" style="edgeLabel;html=1;align=center;verticalAlign=middle;resizable=0;points=[];" parent="yHhBt-GLsd7lr8tDsYQ4-65" vertex="1" connectable="0">
          <mxGeometry x="-0.0856" relative="1" as="geometry">
            <mxPoint as="offset" />
          </mxGeometry>
        </mxCell>
        <mxCell id="yHhBt-GLsd7lr8tDsYQ4-59" value="" style="group;strokeWidth=2;" parent="1" vertex="1" connectable="0">
          <mxGeometry x="400" y="10" width="210" height="270" as="geometry" />
        </mxCell>
        <mxCell id="yHhBt-GLsd7lr8tDsYQ4-60" value="" style="rounded=1;whiteSpace=wrap;html=1;fillColor=none;strokeColor=#FF8000;dashed=1;strokeWidth=2;" parent="yHhBt-GLsd7lr8tDsYQ4-59" vertex="1">
          <mxGeometry y="20" width="162.8571428571429" height="250" as="geometry" />
        </mxCell>
        <mxCell id="yHhBt-GLsd7lr8tDsYQ4-61" value="&lt;b&gt;&lt;i&gt;ECS Task Definition&lt;/i&gt;&lt;/b&gt;" style="text;html=1;align=center;verticalAlign=middle;resizable=0;points=[];autosize=1;strokeColor=none;fillColor=none;spacing=0;" parent="yHhBt-GLsd7lr8tDsYQ4-59" vertex="1">
          <mxGeometry x="14.285714285714286" width="130" height="20" as="geometry" />
        </mxCell>
        <mxCell id="yHhBt-GLsd7lr8tDsYQ4-56" value="Backend" style="sketch=0;outlineConnect=0;fontColor=#232F3E;gradientColor=none;fillColor=#ED7100;strokeColor=none;dashed=0;verticalLabelPosition=bottom;verticalAlign=top;align=center;html=1;fontSize=12;fontStyle=0;aspect=fixed;pointerEvents=1;shape=mxgraph.aws4.ecs_task;" parent="yHhBt-GLsd7lr8tDsYQ4-59" vertex="1">
          <mxGeometry x="48.45" y="40" width="61.67" height="80" as="geometry" />
        </mxCell>
        <mxCell id="yHhBt-GLsd7lr8tDsYQ4-64" value="Frontend" style="sketch=0;outlineConnect=0;fontColor=#232F3E;gradientColor=none;fillColor=#ED7100;strokeColor=none;dashed=0;verticalLabelPosition=bottom;verticalAlign=top;align=center;html=1;fontSize=12;fontStyle=0;aspect=fixed;pointerEvents=1;shape=mxgraph.aws4.ecs_task;" parent="yHhBt-GLsd7lr8tDsYQ4-59" vertex="1">
          <mxGeometry x="48.44999999999999" y="150" width="61.67" height="80" as="geometry" />
        </mxCell>
        <mxCell id="yHhBt-GLsd7lr8tDsYQ4-69" value="" style="edgeStyle=orthogonalEdgeStyle;rounded=0;orthogonalLoop=1;jettySize=auto;html=1;" parent="1" source="yHhBt-GLsd7lr8tDsYQ4-16" target="yHhBt-GLsd7lr8tDsYQ4-64" edge="1">
          <mxGeometry relative="1" as="geometry" />
        </mxCell>
        <mxCell id="yHhBt-GLsd7lr8tDsYQ4-71" value="" style="endArrow=classic;html=1;rounded=0;exitX=0;exitY=0.5;exitDx=0;exitDy=0;" parent="1" source="yHhBt-GLsd7lr8tDsYQ4-14" target="yHhBt-GLsd7lr8tDsYQ4-56" edge="1">
          <mxGeometry width="50" height="50" relative="1" as="geometry">
            <mxPoint x="530" y="290" as="sourcePoint" />
            <mxPoint x="580" y="240" as="targetPoint" />
            <Array as="points">
              <mxPoint x="560" y="155" />
              <mxPoint x="560" y="90" />
            </Array>
          </mxGeometry>
        </mxCell>
        <mxCell id="yHhBt-GLsd7lr8tDsYQ4-80" value="" style="endArrow=classic;html=1;rounded=0;exitX=0.5;exitY=1;exitDx=0;exitDy=0;entryX=0.188;entryY=0;entryDx=0;entryDy=0;entryPerimeter=0;strokeWidth=2;" parent="1" source="yHhBt-GLsd7lr8tDsYQ4-16" target="yHhBt-GLsd7lr8tDsYQ4-18" edge="1">
          <mxGeometry width="50" height="50" relative="1" as="geometry">
            <mxPoint x="170" y="340" as="sourcePoint" />
            <mxPoint x="220" y="290" as="targetPoint" />
          </mxGeometry>
        </mxCell>
        <mxCell id="yHhBt-GLsd7lr8tDsYQ4-81" value="" style="endArrow=classic;html=1;rounded=0;exitX=0.5;exitY=1;exitDx=0;exitDy=0;entryX=0.807;entryY=0.005;entryDx=0;entryDy=0;entryPerimeter=0;strokeWidth=2;" parent="1" source="yHhBt-GLsd7lr8tDsYQ4-14" target="yHhBt-GLsd7lr8tDsYQ4-18" edge="1">
          <mxGeometry width="50" height="50" relative="1" as="geometry">
            <mxPoint x="219" y="290" as="sourcePoint" />
            <mxPoint x="219" y="320" as="targetPoint" />
          </mxGeometry>
        </mxCell>
        <mxCell id="yHhBt-GLsd7lr8tDsYQ4-86" value="" style="shape=flexArrow;endArrow=classic;html=1;rounded=0;exitX=0.5;exitY=1;exitDx=0;exitDy=0;entryX=0.5;entryY=0;entryDx=0;entryDy=0;fillColor=#000000;" parent="1" source="yHhBt-GLsd7lr8tDsYQ4-17" target="yHhBt-GLsd7lr8tDsYQ4-13" edge="1">
          <mxGeometry width="50" height="50" relative="1" as="geometry">
            <mxPoint x="814" y="280" as="sourcePoint" />
            <mxPoint x="814" y="325" as="targetPoint" />
          </mxGeometry>
        </mxCell>
        <mxCell id="yHhBt-GLsd7lr8tDsYQ4-89" value="" style="endArrow=classic;startArrow=classic;html=1;rounded=0;dashed=1;dashPattern=8 8;" parent="1" source="yHhBt-GLsd7lr8tDsYQ4-54" target="yHhBt-GLsd7lr8tDsYQ4-62" edge="1">
          <mxGeometry width="50" height="50" relative="1" as="geometry">
            <mxPoint x="339.9999999999999" y="239.13409090909093" as="sourcePoint" />
            <mxPoint x="674.63" y="220.00058906341386" as="targetPoint" />
            <Array as="points">
              <mxPoint x="270" y="290" />
              <mxPoint x="690" y="290" />
            </Array>
          </mxGeometry>
        </mxCell>
        <mxCell id="yHhBt-GLsd7lr8tDsYQ4-90" value="S3 Artifcats &amp;amp; Secrets" style="verticalLabelPosition=bottom;html=1;verticalAlign=top;strokeWidth=1;align=center;outlineConnect=0;dashed=0;outlineConnect=0;shape=mxgraph.aws3d.s3Bucket;fillColor=#97D077;strokeColor=#82b366;aspect=fixed;" parent="1" vertex="1">
          <mxGeometry x="1292" y="264.2" width="61.5" height="63.800000000000004" as="geometry" />
        </mxCell>
        <mxCell id="yHhBt-GLsd7lr8tDsYQ4-132" value="" style="edgeStyle=orthogonalEdgeStyle;rounded=0;orthogonalLoop=1;jettySize=auto;html=1;" parent="1" source="yHhBt-GLsd7lr8tDsYQ4-93" target="yHhBt-GLsd7lr8tDsYQ4-118" edge="1">
          <mxGeometry relative="1" as="geometry" />
        </mxCell>
        <mxCell id="yHhBt-GLsd7lr8tDsYQ4-134" value="Calling Secrets" style="edgeLabel;html=1;align=center;verticalAlign=middle;resizable=0;points=[];" parent="yHhBt-GLsd7lr8tDsYQ4-132" vertex="1" connectable="0">
          <mxGeometry x="0.0106" y="1" relative="1" as="geometry">
            <mxPoint as="offset" />
          </mxGeometry>
        </mxCell>
        <mxCell id="yHhBt-GLsd7lr8tDsYQ4-93" value="SSM Parameter Store" style="outlineConnect=0;dashed=0;verticalLabelPosition=bottom;verticalAlign=top;align=center;html=1;shape=mxgraph.aws3.parameter_store;fillColor=#CC0000;gradientColor=none;" parent="1" vertex="1">
          <mxGeometry x="1292" y="28" width="75" height="102" as="geometry" />
        </mxCell>
        <mxCell id="yHhBt-GLsd7lr8tDsYQ4-94" value="Frontend - S3 Static Site&amp;nbsp;" style="verticalLabelPosition=bottom;html=1;verticalAlign=top;strokeWidth=1;align=center;outlineConnect=0;dashed=0;outlineConnect=0;shape=mxgraph.aws3d.s3Bucket;fillColor=#97D077;strokeColor=#57A2D8;aspect=fixed;" parent="1" vertex="1">
          <mxGeometry x="616.4999999999999" y="-350.63" width="52.44" height="54.4" as="geometry" />
        </mxCell>
        <mxCell id="yHhBt-GLsd7lr8tDsYQ4-99" value="" style="edgeStyle=orthogonalEdgeStyle;rounded=0;orthogonalLoop=1;jettySize=auto;html=1;" parent="1" source="yHhBt-GLsd7lr8tDsYQ4-95" target="yHhBt-GLsd7lr8tDsYQ4-94" edge="1">
          <mxGeometry relative="1" as="geometry" />
        </mxCell>
        <mxCell id="yHhBt-GLsd7lr8tDsYQ4-95" value="CloudFront" style="verticalLabelPosition=bottom;html=1;verticalAlign=top;strokeWidth=1;align=center;outlineConnect=0;dashed=0;outlineConnect=0;shape=mxgraph.aws3d.cloudfront;fillColor=#9933FF;strokeColor=#FFFFFF;aspect=fixed;" parent="1" vertex="1">
          <mxGeometry x="622.67" y="-460" width="40.1" height="65.6" as="geometry" />
        </mxCell>
        <mxCell id="yHhBt-GLsd7lr8tDsYQ4-98" value="" style="edgeStyle=orthogonalEdgeStyle;rounded=0;orthogonalLoop=1;jettySize=auto;html=1;dashed=1;" parent="1" source="yHhBt-GLsd7lr8tDsYQ4-96" target="yHhBt-GLsd7lr8tDsYQ4-95" edge="1">
          <mxGeometry relative="1" as="geometry" />
        </mxCell>
        <mxCell id="yHhBt-GLsd7lr8tDsYQ4-100" value="" style="edgeStyle=orthogonalEdgeStyle;rounded=0;orthogonalLoop=1;jettySize=auto;html=1;" parent="1" source="yHhBt-GLsd7lr8tDsYQ4-96" target="yHhBt-GLsd7lr8tDsYQ4-101" edge="1">
          <mxGeometry relative="1" as="geometry" />
        </mxCell>
        <mxCell id="yHhBt-GLsd7lr8tDsYQ4-96" value="Route53" style="verticalLabelPosition=bottom;html=1;verticalAlign=top;strokeWidth=1;align=center;outlineConnect=0;dashed=0;outlineConnect=0;shape=mxgraph.aws3d.route53;fillColor=#5D8049;strokeColor=#575757;aspect=fixed;" parent="1" vertex="1">
          <mxGeometry x="463.29" y="-454.4" width="47.43" height="54.4" as="geometry" />
        </mxCell>
        <mxCell id="yHhBt-GLsd7lr8tDsYQ4-97" value="Elastic Load Balancer" style="verticalLabelPosition=bottom;html=1;verticalAlign=top;strokeWidth=1;align=center;outlineConnect=0;dashed=0;outlineConnect=0;shape=mxgraph.aws3d.elasticLoadBalancing;fillColor=#66B2FF;strokeColor=#FCFCFC;aspect=fixed;" parent="1" vertex="1">
          <mxGeometry x="463.29" y="-167.11" width="46.09" height="44.17" as="geometry" />
        </mxCell>
        <mxCell id="yHhBt-GLsd7lr8tDsYQ4-102" value="" style="endArrow=classic;html=1;rounded=0;exitX=0.5;exitY=1;exitDx=0;exitDy=0;exitPerimeter=0;" parent="1" source="yHhBt-GLsd7lr8tDsYQ4-101" edge="1">
          <mxGeometry width="50" height="50" relative="1" as="geometry">
            <mxPoint x="307.5" y="-300.5999999999999" as="sourcePoint" />
            <mxPoint x="461.28999999999996" y="-146.02173278135365" as="targetPoint" />
            <Array as="points">
              <mxPoint x="308" y="-146" />
            </Array>
          </mxGeometry>
        </mxCell>
        <mxCell id="yHhBt-GLsd7lr8tDsYQ4-103" value="Hostname rules&amp;nbsp;&lt;br&gt;&lt;span style=&quot;background-color: initial;&quot;&gt;/&amp;nbsp;&lt;/span&gt;&lt;span style=&quot;background-color: initial;&quot;&gt;lb endpoint&lt;/span&gt;" style="text;html=1;align=center;verticalAlign=middle;resizable=0;points=[];autosize=1;strokeColor=none;fillColor=none;spacing=-5;" parent="1" vertex="1">
          <mxGeometry x="330" y="-160" width="100" height="30" as="geometry" />
        </mxCell>
        <mxCell id="yHhBt-GLsd7lr8tDsYQ4-108" value="" style="endArrow=classic;html=1;rounded=0;entryX=0.5;entryY=0;entryDx=0;entryDy=0;strokeWidth=2;" parent="1" source="yHhBt-GLsd7lr8tDsYQ4-97" target="yHhBt-GLsd7lr8tDsYQ4-14" edge="1">
          <mxGeometry width="50" height="50" relative="1" as="geometry">
            <mxPoint x="740" y="-110" as="sourcePoint" />
            <mxPoint x="790" y="-160" as="targetPoint" />
            <Array as="points">
              <mxPoint x="485" y="-50" />
              <mxPoint x="795" y="-50" />
            </Array>
          </mxGeometry>
        </mxCell>
        <mxCell id="yHhBt-GLsd7lr8tDsYQ4-109" value="" style="endArrow=classic;html=1;rounded=0;entryX=0.5;entryY=0;entryDx=0;entryDy=0;dashed=1;strokeWidth=2;" parent="1" source="yHhBt-GLsd7lr8tDsYQ4-97" target="yHhBt-GLsd7lr8tDsYQ4-16" edge="1">
          <mxGeometry width="50" height="50" relative="1" as="geometry">
            <mxPoint x="440" y="-20" as="sourcePoint" />
            <mxPoint x="490" y="-70" as="targetPoint" />
            <Array as="points">
              <mxPoint x="486" y="-50" />
              <mxPoint x="170" y="-50" />
            </Array>
          </mxGeometry>
        </mxCell>
        <mxCell id="yHhBt-GLsd7lr8tDsYQ4-112" value="" style="endArrow=classic;html=1;rounded=0;exitX=0.5;exitY=1;exitDx=0;exitDy=0;exitPerimeter=0;" parent="1" target="yHhBt-GLsd7lr8tDsYQ4-101" edge="1">
          <mxGeometry width="50" height="50" relative="1" as="geometry">
            <mxPoint x="307.5" y="-300.5999999999999" as="sourcePoint" />
            <mxPoint x="461.28999999999996" y="-146.02173278135365" as="targetPoint" />
            <Array as="points" />
          </mxGeometry>
        </mxCell>
        <mxCell id="yHhBt-GLsd7lr8tDsYQ4-101" value="" style="outlineConnect=0;dashed=0;verticalLabelPosition=bottom;verticalAlign=top;align=center;html=1;shape=mxgraph.aws3.route_table;fillColor=#F58536;gradientColor=none;" parent="1" vertex="1">
          <mxGeometry x="270" y="-236.11" width="75" height="69" as="geometry" />
        </mxCell>
        <mxCell id="yHhBt-GLsd7lr8tDsYQ4-129" value="" style="edgeStyle=orthogonalEdgeStyle;rounded=0;orthogonalLoop=1;jettySize=auto;html=1;" parent="1" source="yHhBt-GLsd7lr8tDsYQ4-117" target="yHhBt-GLsd7lr8tDsYQ4-118" edge="1">
          <mxGeometry relative="1" as="geometry" />
        </mxCell>
        <mxCell id="yHhBt-GLsd7lr8tDsYQ4-117" value="CodePipeline" style="sketch=0;points=[[0,0,0],[0.25,0,0],[0.5,0,0],[0.75,0,0],[1,0,0],[0,1,0],[0.25,1,0],[0.5,1,0],[0.75,1,0],[1,1,0],[0,0.25,0],[0,0.5,0],[0,0.75,0],[1,0.25,0],[1,0.5,0],[1,0.75,0]];outlineConnect=0;fontColor=#232F3E;fillColor=#C925D1;strokeColor=#ffffff;dashed=0;verticalLabelPosition=bottom;verticalAlign=top;align=center;html=1;fontSize=12;fontStyle=0;aspect=fixed;shape=mxgraph.aws4.resourceIcon;resIcon=mxgraph.aws4.codepipeline;" parent="1" vertex="1">
          <mxGeometry x="1120" y="-150" width="78" height="78" as="geometry" />
        </mxCell>
        <mxCell id="yHhBt-GLsd7lr8tDsYQ4-135" value="" style="edgeStyle=orthogonalEdgeStyle;rounded=0;orthogonalLoop=1;jettySize=auto;html=1;" parent="1" source="yHhBt-GLsd7lr8tDsYQ4-118" target="yHhBt-GLsd7lr8tDsYQ4-119" edge="1">
          <mxGeometry relative="1" as="geometry" />
        </mxCell>
        <mxCell id="yHhBt-GLsd7lr8tDsYQ4-118" value="CodeBuild" style="sketch=0;points=[[0,0,0],[0.25,0,0],[0.5,0,0],[0.75,0,0],[1,0,0],[0,1,0],[0.25,1,0],[0.5,1,0],[0.75,1,0],[1,1,0],[0,0.25,0],[0,0.5,0],[0,0.75,0],[1,0.25,0],[1,0.5,0],[1,0.75,0]];outlineConnect=0;fontColor=#232F3E;fillColor=#C925D1;strokeColor=#ffffff;dashed=0;verticalLabelPosition=bottom;verticalAlign=top;align=center;html=1;fontSize=12;fontStyle=0;aspect=fixed;shape=mxgraph.aws4.resourceIcon;resIcon=mxgraph.aws4.codebuild;" parent="1" vertex="1">
          <mxGeometry x="1120" y="40" width="78" height="78" as="geometry" />
        </mxCell>
        <mxCell id="yHhBt-GLsd7lr8tDsYQ4-149" value="" style="edgeStyle=orthogonalEdgeStyle;rounded=0;orthogonalLoop=1;jettySize=auto;html=1;dashed=1;" parent="1" source="yHhBt-GLsd7lr8tDsYQ4-119" target="yHhBt-GLsd7lr8tDsYQ4-94" edge="1">
          <mxGeometry relative="1" as="geometry">
            <Array as="points">
              <mxPoint x="1090" y="307" />
              <mxPoint x="1090" y="-310" />
            </Array>
          </mxGeometry>
        </mxCell>
        <mxCell id="yHhBt-GLsd7lr8tDsYQ4-152" value="Deployong Frontend App" style="edgeLabel;html=1;align=center;verticalAlign=middle;resizable=0;points=[];" parent="yHhBt-GLsd7lr8tDsYQ4-149" vertex="1" connectable="0">
          <mxGeometry x="0.4976" y="3" relative="1" as="geometry">
            <mxPoint as="offset" />
          </mxGeometry>
        </mxCell>
        <mxCell id="yHhBt-GLsd7lr8tDsYQ4-119" value="" style="sketch=0;points=[[0,0,0],[0.25,0,0],[0.5,0,0],[0.75,0,0],[1,0,0],[0,1,0],[0.25,1,0],[0.5,1,0],[0.75,1,0],[1,1,0],[0,0.25,0],[0,0.5,0],[0,0.75,0],[1,0.25,0],[1,0.5,0],[1,0.75,0]];outlineConnect=0;fontColor=#232F3E;fillColor=#C925D1;strokeColor=#ffffff;dashed=0;verticalLabelPosition=bottom;verticalAlign=top;align=center;html=1;fontSize=12;fontStyle=0;aspect=fixed;shape=mxgraph.aws4.resourceIcon;resIcon=mxgraph.aws4.codedeploy;" parent="1" vertex="1">
          <mxGeometry x="1120" y="268" width="78" height="78" as="geometry" />
        </mxCell>
        <mxCell id="yHhBt-GLsd7lr8tDsYQ4-127" value="" style="group" parent="1" vertex="1" connectable="0">
          <mxGeometry x="1440" y="-191" width="223.07999999999993" height="160" as="geometry" />
        </mxCell>
        <mxCell id="yHhBt-GLsd7lr8tDsYQ4-116" value="" style="sketch=0;outlineConnect=0;fontColor=#232F3E;gradientColor=none;fillColor=#232F3D;strokeColor=none;dashed=0;verticalLabelPosition=bottom;verticalAlign=top;align=center;html=1;fontSize=12;fontStyle=0;aspect=fixed;pointerEvents=1;shape=mxgraph.aws4.git_repository;" parent="yHhBt-GLsd7lr8tDsYQ4-127" vertex="1">
          <mxGeometry x="100" width="123.08" height="160" as="geometry" />
        </mxCell>
        <mxCell id="yHhBt-GLsd7lr8tDsYQ4-125" value="Frontend | Backend" style="swimlane;whiteSpace=wrap;html=1;" parent="yHhBt-GLsd7lr8tDsYQ4-127" vertex="1">
          <mxGeometry y="40" width="150" height="116.11" as="geometry" />
        </mxCell>
        <mxCell id="yHhBt-GLsd7lr8tDsYQ4-120" value="&lt;br&gt;&lt;div&gt;&lt;div&gt;&lt;span style=&quot;white-space: pre;&quot;&gt;&#x9;&lt;/span&gt;Dockerfile&lt;br&gt;&lt;/div&gt;&lt;div&gt;&lt;span style=&quot;white-space: pre;&quot;&gt;&#x9;&lt;/span&gt;app/&lt;br&gt;&lt;/div&gt;&lt;div&gt;&lt;span style=&quot;white-space: pre;&quot;&gt;&#x9;&lt;/span&gt;task-definition.json&lt;br&gt;&lt;/div&gt;&lt;div&gt;&lt;span style=&quot;white-space: pre;&quot;&gt;&#x9;&lt;/span&gt;nginx/conf.d/default.conf&lt;br&gt;&lt;/div&gt;&lt;/div&gt;" style="text;html=1;align=left;verticalAlign=middle;resizable=0;points=[];autosize=1;strokeColor=none;fillColor=none;" parent="yHhBt-GLsd7lr8tDsYQ4-125" vertex="1">
          <mxGeometry x="-20" y="15.96999999999997" width="180" height="90" as="geometry" />
        </mxCell>
        <mxCell id="yHhBt-GLsd7lr8tDsYQ4-136" value="" style="endArrow=classic;html=1;rounded=0;exitX=1;exitY=1;exitDx=0;exitDy=0;exitPerimeter=0;" parent="1" source="yHhBt-GLsd7lr8tDsYQ4-118" target="yHhBt-GLsd7lr8tDsYQ4-90" edge="1">
          <mxGeometry width="50" height="50" relative="1" as="geometry">
            <mxPoint x="1190" y="180" as="sourcePoint" />
            <mxPoint x="1240" y="130" as="targetPoint" />
            <Array as="points">
              <mxPoint x="1200" y="296" />
            </Array>
          </mxGeometry>
        </mxCell>
        <mxCell id="yHhBt-GLsd7lr8tDsYQ4-137" value="Pushing&lt;div&gt;&amp;nbsp;Artifacts /&lt;/div&gt;" style="edgeLabel;html=1;align=center;verticalAlign=middle;resizable=0;points=[];" parent="yHhBt-GLsd7lr8tDsYQ4-136" vertex="1" connectable="0">
          <mxGeometry x="-0.5413" y="-2" relative="1" as="geometry">
            <mxPoint y="46" as="offset" />
          </mxGeometry>
        </mxCell>
        <mxCell id="yHhBt-GLsd7lr8tDsYQ4-138" value="" style="endArrow=classic;html=1;rounded=0;entryX=1;entryY=0.75;entryDx=0;entryDy=0;entryPerimeter=0;" parent="1" source="yHhBt-GLsd7lr8tDsYQ4-90" target="yHhBt-GLsd7lr8tDsYQ4-119" edge="1">
          <mxGeometry width="50" height="50" relative="1" as="geometry">
            <mxPoint x="1190" y="228" as="sourcePoint" />
            <mxPoint x="1240" y="178" as="targetPoint" />
            <Array as="points">
              <mxPoint x="1300" y="326" />
            </Array>
          </mxGeometry>
        </mxCell>
        <mxCell id="yHhBt-GLsd7lr8tDsYQ4-139" value="Deploying&amp;nbsp;&lt;div&gt;Artifacts&lt;/div&gt;" style="edgeLabel;html=1;align=center;verticalAlign=middle;resizable=0;points=[];" parent="yHhBt-GLsd7lr8tDsYQ4-138" vertex="1" connectable="0">
          <mxGeometry x="0.3177" y="2" relative="1" as="geometry">
            <mxPoint as="offset" />
          </mxGeometry>
        </mxCell>
        <mxCell id="yHhBt-GLsd7lr8tDsYQ4-140" value="taskdef.json&lt;div style=&quot;font-size: 10px;&quot;&gt;appspec.yml&lt;/div&gt;&lt;div style=&quot;font-size: 10px;&quot;&gt;mageContainer.json&lt;br style=&quot;font-size: 10px;&quot;&gt;&lt;/div&gt;" style="text;html=1;align=left;verticalAlign=middle;resizable=0;points=[];autosize=1;strokeColor=none;fillColor=none;fontStyle=2;spacing=2;spacingTop=-20;fontSize=10;" parent="1" vertex="1">
          <mxGeometry x="1200" y="252" width="110" height="30" as="geometry" />
        </mxCell>
        <mxCell id="yHhBt-GLsd7lr8tDsYQ4-141" value="ECR" style="sketch=0;points=[[0,0,0],[0.25,0,0],[0.5,0,0],[0.75,0,0],[1,0,0],[0,1,0],[0.25,1,0],[0.5,1,0],[0.75,1,0],[1,1,0],[0,0.25,0],[0,0.5,0],[0,0.75,0],[1,0.25,0],[1,0.5,0],[1,0.75,0]];outlineConnect=0;fontColor=#232F3E;fillColor=#ED7100;strokeColor=#ffffff;dashed=0;verticalLabelPosition=bottom;verticalAlign=top;align=center;html=1;fontSize=12;fontStyle=0;aspect=fixed;shape=mxgraph.aws4.resourceIcon;resIcon=mxgraph.aws4.ecr;" parent="1" vertex="1">
          <mxGeometry x="1295.25" y="167.5" width="55" height="55" as="geometry" />
        </mxCell>
        <mxCell id="yHhBt-GLsd7lr8tDsYQ4-143" value="" style="endArrow=classic;html=1;rounded=0;entryX=0.022;entryY=0.675;entryDx=0;entryDy=0;entryPerimeter=0;" parent="1" target="yHhBt-GLsd7lr8tDsYQ4-141" edge="1">
          <mxGeometry width="50" height="50" relative="1" as="geometry">
            <mxPoint x="1200" y="205" as="sourcePoint" />
            <mxPoint x="1290" y="170" as="targetPoint" />
          </mxGeometry>
        </mxCell>
        <mxCell id="yHhBt-GLsd7lr8tDsYQ4-144" value="" style="endArrow=classic;html=1;rounded=0;entryX=0.022;entryY=0.675;entryDx=0;entryDy=0;entryPerimeter=0;" parent="1" edge="1">
          <mxGeometry width="50" height="50" relative="1" as="geometry">
            <mxPoint x="1200" y="190" as="sourcePoint" />
            <mxPoint x="1296" y="190" as="targetPoint" />
          </mxGeometry>
        </mxCell>
        <mxCell id="yHhBt-GLsd7lr8tDsYQ4-145" value="" style="endArrow=classic;html=1;rounded=0;entryX=0.022;entryY=0.675;entryDx=0;entryDy=0;entryPerimeter=0;" parent="1" edge="1">
          <mxGeometry width="50" height="50" relative="1" as="geometry">
            <mxPoint x="1199.25" y="174" as="sourcePoint" />
            <mxPoint x="1295.25" y="174" as="targetPoint" />
          </mxGeometry>
        </mxCell>
        <mxCell id="yHhBt-GLsd7lr8tDsYQ4-146" value="Nginx" style="text;html=1;align=center;verticalAlign=middle;resizable=0;points=[];autosize=1;strokeColor=none;fillColor=none;" parent="1" vertex="1">
          <mxGeometry x="1220" y="154" width="50" height="30" as="geometry" />
        </mxCell>
        <mxCell id="yHhBt-GLsd7lr8tDsYQ4-147" value="Frontend" style="text;html=1;align=center;verticalAlign=middle;resizable=0;points=[];autosize=1;strokeColor=none;fillColor=none;" parent="1" vertex="1">
          <mxGeometry x="1210" y="169.5" width="70" height="30" as="geometry" />
        </mxCell>
        <mxCell id="yHhBt-GLsd7lr8tDsYQ4-148" value="Backend" style="text;html=1;align=center;verticalAlign=middle;resizable=0;points=[];autosize=1;strokeColor=none;fillColor=none;" parent="1" vertex="1">
          <mxGeometry x="1209" y="184.5" width="70" height="30" as="geometry" />
        </mxCell>
        <mxCell id="yHhBt-GLsd7lr8tDsYQ4-150" value="" style="endArrow=classic;html=1;rounded=0;entryX=0.958;entryY=0.593;entryDx=0;entryDy=0;entryPerimeter=0;dashed=1;dashPattern=12 12;" parent="1" source="yHhBt-GLsd7lr8tDsYQ4-90" target="yHhBt-GLsd7lr8tDsYQ4-113" edge="1">
          <mxGeometry width="50" height="50" relative="1" as="geometry">
            <mxPoint x="1230" y="470" as="sourcePoint" />
            <mxPoint x="1280" y="420" as="targetPoint" />
            <Array as="points">
              <mxPoint x="1323" y="380" />
            </Array>
          </mxGeometry>
        </mxCell>
        <mxCell id="yHhBt-GLsd7lr8tDsYQ4-151" value="Calling Secrets" style="edgeLabel;html=1;align=center;verticalAlign=middle;resizable=0;points=[];" parent="yHhBt-GLsd7lr8tDsYQ4-150" vertex="1" connectable="0">
          <mxGeometry x="-0.1639" relative="1" as="geometry">
            <mxPoint as="offset" />
          </mxGeometry>
        </mxCell>
        <mxCell id="yHhBt-GLsd7lr8tDsYQ4-31" value="EC2" style="sketch=0;outlineConnect=0;fontColor=#232F3E;gradientColor=none;fillColor=#ED7100;strokeColor=none;dashed=0;verticalLabelPosition=bottom;verticalAlign=top;align=center;html=1;fontSize=16;fontStyle=1;aspect=fixed;pointerEvents=1;shape=mxgraph.aws4.auto_scaling2;spacing=-6;" parent="1" vertex="1">
          <mxGeometry x="471" y="361.92" width="48" height="48" as="geometry" />
        </mxCell>
        <mxCell id="yHhBt-GLsd7lr8tDsYQ4-74" value="" style="fillColor=none;strokeColor=#000000;dashed=1;verticalAlign=top;fontStyle=0;fontColor=#147EBA;whiteSpace=wrap;html=1;" parent="1" vertex="1">
          <mxGeometry x="30" y="446" width="410" height="80" as="geometry" />
        </mxCell>
        <mxCell id="yHhBt-GLsd7lr8tDsYQ4-75" value="" style="fillColor=none;strokeColor=#000000;dashed=1;verticalAlign=top;fontStyle=0;fontColor=#147EBA;whiteSpace=wrap;html=1;" parent="1" vertex="1">
          <mxGeometry x="550" y="446" width="410" height="80" as="geometry" />
        </mxCell>
        <mxCell id="yHhBt-GLsd7lr8tDsYQ4-76" value="" style="shape=image;html=1;verticalAlign=top;verticalLabelPosition=bottom;labelBackgroundColor=#ffffff;imageAspect=0;aspect=fixed;image=https://cdn3.iconfinder.com/data/icons/arrows-set-12/512/reset-128.png" parent="1" vertex="1">
          <mxGeometry x="463" y="456.5" width="64" height="64" as="geometry" />
        </mxCell>
        <mxCell id="yHhBt-GLsd7lr8tDsYQ4-28" value="&lt;b&gt;&lt;i&gt;Capacity Provider&lt;/i&gt;&lt;/b&gt;" style="text;html=1;align=center;verticalAlign=middle;resizable=0;points=[];autosize=1;strokeColor=none;fillColor=none;spacing=0;" parent="1" vertex="1">
          <mxGeometry x="-15" y="290" width="120" height="20" as="geometry" />
        </mxCell>
        <mxCell id="yHhBt-GLsd7lr8tDsYQ4-24" value="Availability Zone - (Region)b" style="fillColor=none;strokeColor=#000000;dashed=1;verticalAlign=top;fontStyle=0;fontColor=#147EBA;whiteSpace=wrap;html=1;" parent="1" vertex="1">
          <mxGeometry x="30" y="346" width="410" height="80" as="geometry" />
        </mxCell>
        <mxCell id="yHhBt-GLsd7lr8tDsYQ4-19" value="" style="verticalLabelPosition=bottom;html=1;verticalAlign=top;strokeWidth=1;align=center;outlineConnect=0;dashed=0;outlineConnect=0;shape=mxgraph.aws3d.application_server;fillColor=#ffe6cc;strokeColor=#d79b00;aspect=fixed;" parent="1" vertex="1">
          <mxGeometry x="732.3" y="368.0769230769231" width="39.52307692307692" height="39.84615384615385" as="geometry" />
        </mxCell>
        <mxCell id="yHhBt-GLsd7lr8tDsYQ4-21" value="" style="verticalLabelPosition=bottom;html=1;verticalAlign=top;strokeWidth=1;align=center;outlineConnect=0;dashed=0;outlineConnect=0;shape=mxgraph.aws3d.application_server;fillColor=#ffe6cc;strokeColor=#d79b00;aspect=fixed;" parent="1" vertex="1">
          <mxGeometry x="209.99999999999994" y="368.0769230769231" width="39.52307692307692" height="39.84615384615385" as="geometry" />
        </mxCell>
        <mxCell id="yHhBt-GLsd7lr8tDsYQ4-39" value="" style="edgeStyle=orthogonalEdgeStyle;rounded=0;orthogonalLoop=1;jettySize=auto;html=1;" parent="1" source="yHhBt-GLsd7lr8tDsYQ4-31" target="yHhBt-GLsd7lr8tDsYQ4-23" edge="1">
          <mxGeometry relative="1" as="geometry" />
        </mxCell>
        <mxCell id="yHhBt-GLsd7lr8tDsYQ4-40" value="" style="edgeStyle=orthogonalEdgeStyle;rounded=0;orthogonalLoop=1;jettySize=auto;html=1;" parent="1" source="yHhBt-GLsd7lr8tDsYQ4-31" target="yHhBt-GLsd7lr8tDsYQ4-24" edge="1">
          <mxGeometry relative="1" as="geometry" />
        </mxCell>
        <mxCell id="yHhBt-GLsd7lr8tDsYQ4-42" value="&lt;b&gt;&lt;font style=&quot;font-size: 16px;&quot;&gt;FARGATE SPOT&lt;/font&gt;&lt;/b&gt;" style="sketch=0;points=[[0,0,0],[0.25,0,0],[0.5,0,0],[0.75,0,0],[1,0,0],[0,1,0],[0.25,1,0],[0.5,1,0],[0.75,1,0],[1,1,0],[0,0.25,0],[0,0.5,0],[0,0.75,0],[1,0.25,0],[1,0.5,0],[1,0.75,0]];outlineConnect=0;fontColor=#232F3E;fillColor=#ED7100;strokeColor=#ffffff;dashed=0;verticalLabelPosition=bottom;verticalAlign=top;align=center;html=1;fontSize=12;fontStyle=0;aspect=fixed;shape=mxgraph.aws4.resourceIcon;resIcon=mxgraph.aws4.fargate;spacing=-2;" parent="1" vertex="1">
          <mxGeometry x="729.14" y="455.15999999999997" width="45.84" height="45.84" as="geometry" />
        </mxCell>
        <mxCell id="yHhBt-GLsd7lr8tDsYQ4-73" value="&lt;b&gt;&lt;font style=&quot;font-size: 16px;&quot;&gt;FARGATE&lt;/font&gt;&lt;/b&gt;" style="sketch=0;points=[[0,0,0],[0.25,0,0],[0.5,0,0],[0.75,0,0],[1,0,0],[0,1,0],[0.25,1,0],[0.5,1,0],[0.75,1,0],[1,1,0],[0,0.25,0],[0,0.5,0],[0,0.75,0],[1,0.25,0],[1,0.5,0],[1,0.75,0]];outlineConnect=0;fontColor=#232F3E;fillColor=#ED7100;strokeColor=#ffffff;dashed=0;verticalLabelPosition=bottom;verticalAlign=top;align=center;html=1;fontSize=12;fontStyle=0;aspect=fixed;shape=mxgraph.aws4.resourceIcon;resIcon=mxgraph.aws4.fargate;spacing=-2;" parent="1" vertex="1">
          <mxGeometry x="206.51999999999998" y="456.5" width="45" height="45" as="geometry" />
        </mxCell>
        <mxCell id="yHhBt-GLsd7lr8tDsYQ4-72" value="1 / 10" style="text;html=1;align=center;verticalAlign=middle;resizable=0;points=[];autosize=1;strokeColor=none;fillColor=none;rounded=0;glass=0;fontSize=16;fontStyle=1" parent="1" vertex="1">
          <mxGeometry x="465" y="473.5" width="60" height="30" as="geometry" />
        </mxCell>
        <mxCell id="yHhBt-GLsd7lr8tDsYQ4-78" value="" style="endArrow=classic;html=1;rounded=0;fontSize=12;strokeWidth=3;" parent="1" edge="1">
          <mxGeometry width="50" height="50" relative="1" as="geometry">
            <mxPoint x="940" y="462.5" as="sourcePoint" />
            <mxPoint x="940" y="402.5" as="targetPoint" />
          </mxGeometry>
        </mxCell>
        <mxCell id="yHhBt-GLsd7lr8tDsYQ4-79" value="" style="endArrow=classic;html=1;rounded=0;fontSize=12;strokeWidth=3;" parent="1" edge="1">
          <mxGeometry width="50" height="50" relative="1" as="geometry">
            <mxPoint x="950" y="409.5" as="sourcePoint" />
            <mxPoint x="950" y="469.5" as="targetPoint" />
          </mxGeometry>
        </mxCell>
      </root>
    </mxGraphModel>
  </diagram>
</mxfile>
